<?xml version="1.0" encoding="UTF-8" standalone="no"?><!DOCTYPE svg PUBLIC "-//W3C//DTD SVG 1.1//EN" "http://www.w3.org/Graphics/SVG/1.1/DTD/svg11.dtd"><svg width="100%" height="100%" viewBox="0 0 417 417" version="1.1" xmlns="http://www.w3.org/2000/svg" xmlns:xlink="http://www.w3.org/1999/xlink" xml:space="preserve" xmlns:serif="http://www.serif.com/" style="fill-rule:evenodd;clip-rule:evenodd;stroke-linecap:round;stroke-linejoin:round;stroke-miterlimit:1.5;"><g><g><path d="M274.966,282.257l-0,105.367l-79.813,-0l-0,-33.964l-0,33.964l-80.822,-0l0,-105.367c0,-11.141 7.646,-20.187 17.06,-20.187l126.515,-0c9.414,-0 17.06,9.046 17.06,20.187Z" style="stroke:#fff;stroke-width:43.38px;"/></g><g><path d="M356.273,88.286l0,118.498c0,32.698 -30.058,59.25 -67.081,59.25l-161.72,0c-37.022,0 -67.081,-26.552 -67.081,-59.25l0,-118.498c0,-32.699 30.059,-59.246 67.081,-59.246l161.72,-0c37.023,-0 67.081,26.547 67.081,59.246Z" style="stroke:#fff;stroke-width:43.39px;"/></g><g><ellipse cx="295.115" cy="147.535" rx="45.359" ry="45.12" style="stroke:#fff;stroke-width:34.71px;"/></g><g><ellipse cx="164.603" cy="147.535" rx="45.359" ry="45.12" style="stroke:#fff;stroke-width:34.71px;"/></g></g></svg>